<svg width="138" height="42" viewBox="0 0 138 42" fill="none" xmlns="http://www.w3.org/2000/svg">
<path d="M126.048 23.4183C126.3 21.997 126.966 18.2444 127.218 16.8224C126.517 16.6976 127.956 16.9529 127.226 16.8238C127.246 16.7127 127.262 16.623 127.278 16.5319C128.017 16.6553 129.482 16.8769 130.576 17.059C130.306 18.5814 129.619 22.4559 129.344 24.002" fill="black"/>
<path d="M67.981 14.5763H65.1671V13.4662C67.5809 13.3938 69.9925 13.3214 72.4614 13.2475V17.4734C72.5045 17.487 72.5468 17.4999 72.5898 17.5135C72.7504 17.1872 72.9025 16.8567 73.0738 16.5361C74.0491 14.7161 75.4424 13.4569 77.5729 13.1815C79.958 12.8739 81.8619 13.9295 82.8493 16.1195C82.9598 16.364 83.0587 16.6128 83.1878 16.9176C83.5162 16.4429 83.8088 15.9839 84.1373 15.553C85.8102 13.3615 88.2814 12.5863 90.9088 13.406C92.4886 13.8986 93.2975 15.0539 93.5004 16.6078C93.6618 17.8491 93.6883 19.1134 93.6962 20.3683C93.7163 23.6462 93.6919 26.9247 93.6876 30.2033C93.6876 30.3553 93.7134 30.5074 93.7327 30.7168H96.3358V31.8727H87.1003V30.7583H89.2717C89.2717 30.4392 89.2717 30.199 89.2717 29.9581C89.2753 25.8713 89.2882 21.7846 89.2717 17.6978C89.2695 17.0782 89.1835 16.4458 89.0372 15.8441C88.8687 15.1507 88.3273 14.8366 87.6302 14.8079C86.4119 14.7577 85.4596 15.2812 84.721 16.2156C83.7278 17.4719 83.2036 18.9563 83.152 20.5088C83.0422 23.8283 83.0946 27.1535 83.0831 30.4765C83.0831 30.5375 83.119 30.5984 83.1591 30.7275H85.3692V31.8842H76.4944V30.7203H78.6486C78.6486 30.4134 78.6486 30.1725 78.6486 29.9315C78.66 25.89 78.6751 21.8484 78.6773 17.8061C78.6773 17.3615 78.6314 16.9104 78.551 16.4723C78.2707 14.9442 76.8479 14.3174 75.5019 15.1356C74.3116 15.8585 73.5887 16.9915 73.1807 18.2593C72.8214 19.3744 72.5547 20.5641 72.5188 21.7293C72.4277 24.6895 72.4887 27.6547 72.4887 30.7031H74.721V31.8792H65.3414V30.7483H67.9789V14.5777L67.981 14.5763Z" fill="black"/>
<path d="M0.0530657 31.8794V30.7235H3.24272V14.5715H0V13.3754H3.1997C3.34527 11.7799 3.43347 10.2603 3.63497 8.75513C3.88883 6.85482 4.41446 5.02478 5.45354 3.38478C6.60233 1.57195 8.1864 0.365789 10.3499 0.0538508C11.6471 -0.132595 12.8619 0.16285 13.8995 0.975323C15.0096 1.84373 15.3961 3.01475 15.1129 4.38943C14.9257 5.29656 14.1842 5.96633 13.3172 6.06601C12.319 6.18146 11.5589 5.81001 11.1824 5.02191C10.7837 4.18936 10.9709 3.13881 11.6285 2.46976C11.8802 2.21447 12.4101 1.98285 12.086 1.57554C11.8321 1.25643 11.3395 1.01405 10.925 0.961698C10.1599 0.86489 9.62634 1.38048 9.20684 1.95847C8.36855 3.113 7.88952 4.43102 7.84865 5.83941C7.77909 8.23882 7.82642 10.6418 7.82714 13.0434C7.82714 13.128 7.85582 13.2119 7.88235 13.3603H11.8142V14.5242H7.87805V30.7055H11.4241V31.878H0.0530657V31.8794Z" fill="black"/>
<path d="M114.471 23.0661C114.377 25.8835 113.383 28.3152 111.324 30.265C108.192 33.2309 103.852 33.3944 100.489 30.696C94.8902 26.2041 96.0397 16.7699 102.552 13.8191C104.983 12.7176 107.356 12.9134 109.631 14.2644C112.595 16.0256 114.554 19.6182 114.471 23.0661ZM109.55 23.1665C109.455 21.0324 109.431 19.2375 109.277 17.4533C109.175 16.2758 108.8 15.1514 107.674 14.4996C105.292 13.1213 102.439 14.4014 102.132 17.1242C101.877 19.3866 101.88 21.6842 101.87 23.9667C101.863 25.5314 101.956 27.1055 102.139 28.6594C102.373 30.6616 103.482 31.6354 105.358 31.682C107.695 31.7401 108.805 31.0058 109.115 28.8552C109.401 26.8674 109.431 24.843 109.549 23.1672L109.55 23.1665Z" fill="black"/>
<path d="M21.0533 30.7399H24.8109V31.883H14.1225V30.7198H16.5277V14.5736H13.7963V13.4657C16.1957 13.3947 18.5807 13.3237 21.0203 13.2513V18.1003C21.0676 18.1218 21.1143 18.1441 21.1616 18.1656C21.2641 17.9992 21.3602 17.8285 21.4707 17.6672C22.1899 16.6166 22.8073 15.4729 23.6578 14.5414C24.8661 13.2183 26.4437 12.7959 28.2042 13.3359C29.9518 13.8716 30.798 15.7991 30.0271 17.4585C29.5681 18.446 28.1569 19.0311 27.0963 18.6733C26.0866 18.3327 25.4857 17.2549 25.6879 16.1484C25.6958 16.1039 25.7159 16.0587 25.7109 16.0164C25.6736 15.6608 25.6313 15.3058 25.5911 14.9501C25.1738 15.0584 24.6553 15.0455 24.3555 15.2957C22.968 16.4546 22.1662 17.9928 21.7209 19.7303C21.125 22.0566 21.1006 24.4366 21.0576 26.8138C21.0347 28.0881 21.0533 29.3645 21.0533 30.7399Z" fill="black"/>
<path d="M53.1966 22.5619C54.103 24.9205 54.8488 27.2546 55.8864 29.4511C56.9377 31.6763 59.0768 31.6684 60.9456 30.5942C63.3414 29.2166 64.0829 26.9248 64.1632 24.3253C64.1689 24.1496 64.1632 23.9739 64.1632 23.7968C64.4794 23.6957 64.7691 23.6024 65.061 23.5092C65.6863 26.0901 64.2966 29.4454 62.0069 30.9463C58.2808 33.388 54.4494 32.8329 51.3379 29.4002C48.0485 25.771 47.525 20.4651 50.0679 16.5189C53.1091 11.8004 59.9789 11.9862 62.7369 16.8689C62.9886 17.3149 63.1965 17.7904 63.3751 18.2715C63.6734 19.0754 63.5823 19.2346 62.7799 19.492C59.8943 20.4178 57.008 21.3414 54.1224 22.2665C53.89 22.3411 53.657 22.4156 53.1973 22.5634L53.1966 22.5619ZM52.9442 21.345C54.9183 20.7125 56.8251 20.1008 58.7448 19.4856C58.3332 18.2013 57.9968 16.9435 57.525 15.7395C57.0897 14.6301 56.1345 14.055 55.0969 14.2063C54.4874 14.2952 53.8814 14.4982 53.3092 14.7355C52.3612 15.1299 51.9173 15.9202 51.9015 16.9184C51.8771 18.4723 52.4501 19.8893 52.9442 21.345Z" fill="black"/>
<path d="M35.4814 21.5598C35.604 23.9879 35.6133 26.3228 35.8664 28.6311C36.1605 31.3102 38.1812 32.0474 40.4243 31.5676C43.0403 31.0076 44.4795 29.1446 45.3028 26.7502C45.5337 26.0797 45.842 25.899 46.5441 26.1406C45.9008 28.743 44.6645 30.8871 42.0672 31.9556C38.2343 33.5318 34.6524 32.3837 32.3907 28.9165C29.3631 24.2747 30.329 17.8732 34.5721 14.6807C37.0238 12.8356 39.6958 12.5824 42.42 13.9643C45.1249 15.3361 46.4279 17.6516 46.4802 20.6713C46.4939 21.4501 46.3669 21.5605 45.5824 21.5612C42.5283 21.562 39.4749 21.5612 36.4208 21.5605C36.177 21.5605 35.9331 21.5598 35.4814 21.5598ZM41.7639 20.3536C41.7639 19.0779 41.8255 17.8675 41.7474 16.667C41.6592 15.3103 40.9908 14.4218 39.9267 14.2081C39.3042 14.0833 38.6395 14.0941 38.0005 14.1378C37.0389 14.2038 36.3684 14.7653 36.0249 15.6402C35.4283 17.1604 35.5997 18.7509 35.6076 20.3536H41.7639Z" fill="black"/>
<path d="M119.715 14.5977C121.156 14.5977 122.324 13.4297 122.324 11.9889C122.324 10.5481 121.156 9.38007 119.715 9.38007C118.275 9.38007 117.107 10.5481 117.107 11.9889C117.107 13.4297 118.275 14.5977 119.715 14.5977Z" fill="black"/>
<path d="M135.007 14.8882C136.448 14.8882 137.616 13.7202 137.616 12.2794C137.616 10.8386 136.448 9.67063 135.007 9.67063C133.566 9.67063 132.398 10.8386 132.398 12.2794C132.398 13.7202 133.566 14.8882 135.007 14.8882Z" fill="black"/>
<path d="M133.74 32.1976C132.795 35.5543 129.787 37.7587 126.413 37.7078C120.187 37.6131 120.818 24.1166 120.817 21.8914C120.803 21.9775 120.853 18.5913 120.933 17.8348C118.374 17.9065 120.184 17.842 117.667 17.9123C117.667 18.2708 117.633 19.7014 117.634 19.9445C117.648 26.0255 118.012 38.6457 126.1 38.6608C130.861 38.6694 133.229 35.4769 134.406 32.1044L133.74 32.1969L133.74 32.1976Z" fill="black"/>
<path d="M0 41.8626V38.807H0.623159C1.09358 38.807 1.46934 38.9261 1.75044 39.1641C2.09823 39.4546 2.27249 39.8454 2.27249 40.3366C2.27249 40.8278 2.09393 41.2043 1.73681 41.5091C1.59053 41.6345 1.43276 41.7242 1.26496 41.7794C1.09716 41.8346 0.881315 41.8619 0.618857 41.8619H0.000715611L0 41.8626ZM0.339186 39.1276V41.542H0.636784C1.00035 41.542 1.29221 41.4502 1.51164 41.2674C1.78629 41.035 1.92398 40.7253 1.92398 40.3373C1.92398 39.9709 1.80637 39.6776 1.57116 39.4574C1.33596 39.2373 1.02474 39.1276 0.636784 39.1276H0.339186Z" fill="black"/>
<path d="M3.564 38.807H3.90318V41.8626H3.564V38.807Z" fill="black"/>
<path d="M6.93578 40.6488V40.3282H8.20935V40.4014C8.20935 40.78 8.11182 41.102 7.91606 41.368C7.64428 41.7345 7.26565 41.918 6.78017 41.918C6.3284 41.918 5.9512 41.766 5.64859 41.462C5.34597 41.1579 5.19538 40.7836 5.19538 40.3375C5.19538 39.8915 5.34741 39.5165 5.65146 39.2131C5.95551 38.9091 6.33485 38.7571 6.79021 38.7571C7.1502 38.7571 7.46213 38.8582 7.72459 39.0597C7.85869 39.1637 7.97629 39.2841 8.0774 39.4218L7.8257 39.6506C7.73678 39.5251 7.64069 39.4197 7.53743 39.3343C7.3266 39.1637 7.0792 39.0776 6.79523 39.0776C6.43166 39.0776 6.13263 39.1981 5.89742 39.4397C5.66221 39.6807 5.54461 39.9819 5.54461 40.3418C5.54461 40.6043 5.60843 40.8345 5.73679 41.031C5.86515 41.2275 6.02148 41.3716 6.20649 41.4612C6.3915 41.5516 6.5844 41.5961 6.78591 41.5961C6.98741 41.5961 7.17171 41.5494 7.33807 41.4562C7.50444 41.363 7.63209 41.2382 7.72029 41.0826C7.7963 40.9514 7.83789 40.8065 7.84363 40.6473H6.9365L6.93578 40.6488Z" fill="black"/>
<path d="M9.50086 38.807H9.84004V41.8626H9.50086V38.807Z" fill="black"/>
<path d="M12.7902 39.1276H12.048V41.8626H11.7088V39.1276H10.9666V38.807H12.7902V39.1276Z" fill="black"/>
<path d="M15.7539 41.8627L15.3968 41.0014H14.096L13.7296 41.8627H13.3538L14.76 38.6608L16.1297 41.8627H15.7539ZM14.2287 40.6809H15.2642L14.7514 39.4575L14.2287 40.6809Z" fill="black"/>
<path d="M17.229 38.807H17.5682V41.542H18.4108V41.8626H17.229V38.807Z" fill="black"/>
<path d="M21.2742 38.807H21.8242C22.1297 38.807 22.3635 38.8708 22.5248 38.9992C22.7084 39.1398 22.7995 39.3506 22.7995 39.6317C22.7995 39.8941 22.6984 40.0942 22.4969 40.2319C22.6926 40.2807 22.8382 40.3789 22.9343 40.5273C23.0304 40.6758 23.0784 40.8335 23.0784 41.0013C23.0784 41.139 23.0483 41.2652 22.9888 41.3814C22.9293 41.4976 22.8554 41.5908 22.7665 41.6611C22.5951 41.7952 22.3513 41.8626 22.0336 41.8626H21.2735L21.2742 38.807ZM21.6134 39.1276V40.1494H21.8701C21.916 40.1494 21.9605 40.1473 22.0028 40.1423C22.0458 40.138 22.0967 40.1258 22.1562 40.1057C22.2157 40.0856 22.2674 40.0591 22.3118 40.0254C22.3563 39.9917 22.3936 39.9415 22.4244 39.8741C22.4553 39.8067 22.4703 39.7292 22.4703 39.6403C22.4703 39.5456 22.4517 39.4639 22.4151 39.395C22.3785 39.3262 22.3369 39.2753 22.2918 39.2416C22.2459 39.2079 22.1906 39.1821 22.1268 39.1634C22.063 39.1448 22.0135 39.1347 21.9805 39.1311C21.9468 39.1283 21.9131 39.1268 21.8794 39.1268L21.6134 39.1276ZM21.6134 40.4513V41.5413H22.0028C22.2502 41.5413 22.4287 41.4983 22.5384 41.413C22.6725 41.3154 22.7399 41.1749 22.7399 40.9913C22.7399 40.7869 22.6532 40.6371 22.4789 40.5424C22.3692 40.4814 22.1964 40.4506 21.9612 40.4506H21.6127L21.6134 40.4513Z" fill="black"/>
<path d="M26.9249 41.4639C26.618 41.7665 26.2415 41.9171 25.7955 41.9171C25.3495 41.9171 24.973 41.7658 24.6661 41.4639C24.3592 41.1613 24.2057 40.7855 24.2057 40.3366C24.2057 39.8877 24.3599 39.5084 24.6682 39.2072C24.9766 38.9067 25.3523 38.7561 25.7955 38.7561C26.2387 38.7561 26.6137 38.9067 26.9228 39.2072C27.2311 39.5084 27.3853 39.8848 27.3853 40.3366C27.3853 40.7884 27.2319 41.1613 26.9249 41.4639ZM26.6754 39.4438C26.4344 39.1993 26.1411 39.0774 25.7955 39.0774C25.4499 39.0774 25.1573 39.1993 24.9156 39.4438C24.6747 39.6884 24.5535 39.986 24.5535 40.3373C24.5535 40.6887 24.674 40.9863 24.9156 41.2308C25.1566 41.4754 25.4499 41.5973 25.7955 41.5973C26.1411 41.5973 26.4337 41.4754 26.6754 41.2308C26.9163 40.9863 27.0375 40.6887 27.0375 40.3373C27.0375 39.986 26.9171 39.6884 26.6754 39.4438Z" fill="black"/>
<path d="M28.6775 41.8626V38.807H29.3007C29.7711 38.807 30.1468 38.9261 30.4279 39.1641C30.7757 39.4546 30.95 39.8454 30.95 40.3366C30.95 40.8278 30.7714 41.2043 30.4143 41.5091C30.268 41.6345 30.1103 41.7242 29.9425 41.7794C29.7747 41.8346 29.5588 41.8619 29.2964 41.8619H28.6782L28.6775 41.8626ZM29.016 39.1276V41.542H29.3136C29.6771 41.542 29.969 41.4502 30.1884 41.2674C30.4631 41.035 30.6008 40.7253 30.6008 40.3373C30.6008 39.9709 30.4832 39.6776 30.248 39.4574C30.0127 39.2373 29.7015 39.1276 29.3136 39.1276H29.016Z" fill="black"/>
<path d="M32.7815 41.8626V40.5481L31.7783 38.807H32.1719L32.9507 40.1724L33.7388 38.807H34.1325L33.12 40.5481V41.8626H32.7815Z" fill="black"/>
<path d="M36.9686 38.807H37.3078V41.542H38.1504V41.8626H36.9686V38.807Z" fill="black"/>
<path d="M41.3207 41.8627L40.9636 41.0014H39.6628L39.2963 41.8627H38.9206L40.3268 38.6608L41.6965 41.8627H41.3207ZM39.7954 40.6809H40.8309L40.3182 39.4575L39.7954 40.6809Z" fill="black"/>
<path d="M43.1349 41.8623H42.7958V38.6784L45.178 41.1753V38.8068H45.5172V42L43.1349 39.5031V41.8623Z" fill="black"/>
<path d="M48.5498 40.6488V40.3282H49.8233V40.4014C49.8233 40.78 49.7258 41.102 49.53 41.368C49.2583 41.7345 48.8796 41.918 48.3942 41.918C47.9424 41.918 47.5652 41.766 47.2626 41.462C46.96 41.1579 46.8094 40.7836 46.8094 40.3375C46.8094 39.8915 46.9614 39.5165 47.2654 39.2131C47.5695 38.9091 47.9488 38.7571 48.4042 38.7571C48.7642 38.7571 49.0761 38.8582 49.3386 39.0597C49.4727 39.1637 49.5903 39.2841 49.6914 39.4218L49.4397 39.6506C49.3508 39.5251 49.2547 39.4197 49.1514 39.3343C48.9406 39.1637 48.6932 39.0776 48.4092 39.0776C48.0457 39.0776 47.7466 39.1981 47.5114 39.4397C47.2762 39.6807 47.1586 39.9819 47.1586 40.3418C47.1586 40.6043 47.2224 40.8345 47.3508 41.031C47.4791 41.2275 47.6355 41.3716 47.8205 41.4612C48.0055 41.5516 48.1984 41.5961 48.3999 41.5961C48.6014 41.5961 48.7857 41.5494 48.9521 41.4562C49.1184 41.363 49.2461 41.2382 49.3343 41.0826C49.4103 40.9514 49.4519 40.8065 49.4576 40.6473H48.5505L48.5498 40.6488Z" fill="black"/>
<path d="M51.454 38.807V40.6808C51.454 40.797 51.4562 40.8866 51.4612 40.9511C51.4655 41.015 51.487 41.0938 51.525 41.1871C51.563 41.2803 51.6204 41.3592 51.6971 41.423C51.8348 41.5392 52.0026 41.5973 52.2012 41.5973C52.3999 41.5973 52.5677 41.5392 52.7054 41.423C52.7814 41.3592 52.8387 41.2803 52.8775 41.1871C52.9155 41.0938 52.937 41.015 52.9413 40.9511C52.9456 40.8873 52.9485 40.797 52.9485 40.6808V38.807H53.2876V40.7726C53.2876 41.0838 53.2238 41.3283 53.0955 41.5055C53.0008 41.6338 52.876 41.7342 52.7219 41.8081C52.5677 41.8812 52.3941 41.9178 52.202 41.9178C52.0098 41.9178 51.8362 41.8812 51.6821 41.8081C51.5279 41.7349 51.4031 41.6338 51.3084 41.5055C51.1801 41.3283 51.1163 41.0838 51.1163 40.7726V38.807H51.4555H51.454Z" fill="black"/>
<path d="M56.7864 41.8627L56.4292 41.0014H55.1284L54.762 41.8627H54.3862L55.7925 38.6608L57.1621 41.8627H56.7864ZM55.2611 40.6809H56.2966L55.7839 39.4575L55.2611 40.6809Z" fill="black"/>
<path d="M59.7458 40.6488V40.3282H61.0194V40.4014C61.0194 40.78 60.9219 41.102 60.7261 41.368C60.4543 41.7345 60.0757 41.918 59.5902 41.918C59.1384 41.918 58.7612 41.766 58.4586 41.462C58.156 41.1579 58.0054 40.7836 58.0054 40.3375C58.0054 39.8915 58.1575 39.5165 58.4615 39.2131C58.7656 38.9091 59.1449 38.7571 59.6003 38.7571C59.9602 38.7571 60.2722 38.8582 60.5346 39.0597C60.6687 39.1637 60.7863 39.2841 60.8875 39.4218L60.6357 39.6506C60.5468 39.5251 60.4507 39.4197 60.3475 39.3343C60.1366 39.1637 59.8892 39.0776 59.6053 39.0776C59.2417 39.0776 58.9427 39.1981 58.7075 39.4397C58.4723 39.6807 58.3547 39.9819 58.3547 40.3418C58.3547 40.6043 58.4185 40.8345 58.5468 41.031C58.6752 41.2275 58.8315 41.3716 59.0165 41.4612C59.2016 41.5516 59.3945 41.5961 59.596 41.5961C59.7975 41.5961 59.9818 41.5494 60.1481 41.4562C60.3145 41.363 60.4421 41.2382 60.5303 41.0826C60.6063 40.9514 60.6479 40.8065 60.6537 40.6473H59.7465L59.7458 40.6488Z" fill="black"/>
<path d="M63.8964 38.807V39.1276H62.6501V40.0347H63.8598V40.3552H62.6501V41.542H63.8964V41.8626H62.3116V38.807H63.8964Z" fill="black"/>
</svg>
